<svg id="Trial3" xmlns="http://www.w3.org/2000/svg" viewBox="0 0 43.51 43.63"><defs><style>.cls-1,.cls-3{fill:#fff;}.cls-1{stroke:#25bd37;stroke-miterlimit:10;stroke-width:3px;}.cls-2{fill:#25bd37;}.cls-3{opacity:0.32;}</style></defs><path class="cls-1" d="M54.35,30.1A20.26,20.26,0,0,1,24.77,48.26c-1.26-.66-9.11,1.57-9.11,1.57s2.84-6.5,1.78-8A20.25,20.25,0,1,1,54.35,30.1Z" transform="translate(-12.34 -8.52)"/><polygon class="cls-2" points="9.46 21.62 16.01 23.54 17.89 31.36 20.72 24.87 29.7 29.78 20.49 23.77 17.97 30.41 16.53 22.77 9.46 21.62"/><path class="cls-2" d="M22.3,29,43,20.71a.63.63,0,0,1,.85.62l-1.6,16.26c0,.44-.67-.1-1.13-.37l-8.36-5.54-2.38,6.37-1.35-7.21-6.83-1.13C21.59,29.61,21.69,29.25,22.3,29Z" transform="translate(-12.34 -8.52)"/><polygon class="cls-3" points="16.71 22.33 28.27 15.71 20.45 23.17 18.07 29.54 16.71 22.33"/></svg>